<?xml version="1.0" standalone="no"?>
<!DOCTYPE svg PUBLIC "-//W3C//DTD SVG 20010904//EN"
 "http://www.w3.org/TR/2001/REC-SVG-20010904/DTD/svg10.dtd">
<svg version="1.0" xmlns="http://www.w3.org/2000/svg"
 width="512.000000pt" height="512.000000pt" viewBox="0 0 512.000000 512.000000"
 preserveAspectRatio="xMidYMid meet">
<metadata>
Created by potrace 1.16, written by Peter Selinger 2001-2019
</metadata>
<g transform="translate(0.000000,512.000000) scale(0.100000,-0.100000)"
fill="#000000" stroke="none">
<path d="M1095 5114 c-178 -26 -326 -70 -424 -125 -251 -142 -395 -311 -452
-530 -18 -69 -21 -102 -16 -193 8 -180 60 -303 182 -427 170 -175 411 -266
750 -285 66 -3 129 -11 140 -17 11 -5 70 -60 130 -121 84 -85 127 -120 180
-148 92 -47 128 -55 162 -33 25 17 25 19 19 89 -16 170 -18 273 -7 280 6 4 37
14 68 22 77 20 226 92 314 151 97 64 209 171 258 244 163 243 118 571 -107
793 -113 111 -203 167 -356 221 -175 63 -280 78 -561 81 -137 1 -263 0 -280
-2z m525 -123 c269 -47 470 -144 603 -292 158 -174 200 -405 107 -589 -12 -25
-62 -83 -110 -130 -124 -121 -264 -201 -459 -262 -110 -34 -116 -45 -116 -214
0 -74 -2 -134 -4 -134 -16 0 -112 85 -181 161 -106 115 -144 134 -285 144
-132 9 -294 31 -369 51 -34 9 -103 37 -155 61 -79 38 -108 58 -175 127 -93 93
-138 173 -163 292 -21 95 -9 198 37 308 115 275 376 452 730 496 119 14 408 4
540 -19z"/>
<path d="M1005 4738 c-273 -9 -331 -16 -308 -39 12 -12 544 -29 915 -29 313 0
328 1 338 19 13 25 13 27 -6 45 -13 14 -56 16 -332 14 -174 0 -447 -5 -607
-10z"/>
<path d="M1085 4478 c-358 -9 -412 -15 -386 -41 13 -13 421 -26 863 -26 358
-1 378 0 387 18 7 13 7 23 -2 35 -11 15 -42 17 -252 21 -132 2 -406 -1 -610
-7z"/>
<path d="M902 4210 c-193 -6 -245 -17 -191 -39 30 -12 915 -32 1094 -24 140 6
165 15 144 54 -9 18 -29 19 -432 17 -232 -1 -509 -4 -615 -8z"/>
<path d="M1010 3949 c-102 -3 -213 -7 -248 -8 -55 -1 -63 -3 -60 -18 3 -16 21
-19 158 -24 289 -12 1015 -22 1052 -15 40 7 53 27 38 57 -10 18 -25 19 -383
17 -205 -1 -455 -5 -557 -9z"/>
<path d="M3152 4749 c-55 -28 -107 -89 -132 -156 -34 -92 -23 -162 37 -233
l37 -43 2 -136 c1 -75 5 -211 9 -302 l7 -167 -34 -7 c-53 -12 -185 -84 -237
-131 -27 -24 -63 -66 -81 -94 -30 -47 -35 -50 -74 -50 -72 0 -226 -39 -302
-75 -182 -88 -273 -246 -274 -475 0 -107 58 -815 71 -875 39 -167 151 -233
456 -266 l112 -13 3 -93 3 -93 -40 -4 c-22 -3 -128 -10 -235 -15 -107 -6 -233
-18 -280 -26 -186 -34 -355 -110 -415 -189 -70 -91 -77 -143 -90 -676 -3 -146
-13 -307 -21 -357 -8 -51 -14 -108 -14 -126 0 -46 38 -99 80 -113 40 -13 1300
-29 2285 -29 752 1 758 1 826 73 55 58 63 118 64 482 0 336 -9 417 -66 595
-61 190 -170 288 -369 329 -41 9 -160 21 -265 27 -104 6 -244 13 -310 17
l-120 7 -12 80 c-19 134 -35 119 140 139 289 33 388 96 450 286 45 137 52 219
51 580 -1 502 -24 632 -130 730 -25 23 -61 48 -81 57 -63 26 -181 43 -301 44
l-117 0 -42 58 c-45 65 -159 147 -244 177 -58 21 -54 8 -69 284 -16 296 -14
330 16 359 66 63 103 209 74 295 -30 93 -104 138 -235 143 -77 4 -96 1 -133
-18z m208 -104 c125 -65 31 -316 -108 -290 -85 16 -148 70 -159 139 -7 43 26
118 61 141 56 37 146 41 206 10z m-73 -385 l52 0 -2 -265 -2 -265 -57 0 -58 0
0 63 c0 34 -7 139 -15 232 -8 94 -15 187 -15 209 0 35 2 38 23 32 12 -3 45 -6
74 -6z m608 -928 c182 -7 193 -9 248 -36 61 -30 90 -63 107 -126 17 -64 41
-440 41 -652 0 -370 -39 -531 -144 -592 -91 -53 -202 -67 -682 -87 -653 -27
-1080 25 -1148 139 -22 39 -35 121 -52 347 -9 110 -23 274 -31 365 -29 315 3
433 143 526 102 68 237 99 488 113 167 10 784 11 1030 3z m290 -1946 c110 -9
235 -23 278 -32 185 -40 255 -131 304 -394 15 -79 18 -147 17 -400 -1 -201 -6
-320 -13 -348 -18 -65 -39 -70 -291 -78 l-212 -7 7 34 c3 19 7 213 8 431 3
504 21 467 -249 493 -230 22 -808 38 -1184 32 -375 -5 -406 -10 -476 -81 -35
-34 -44 -53 -58 -112 -27 -121 -36 -286 -29 -536 l6 -238 -253 0 -253 0 7 67
c14 150 28 407 23 441 -5 40 19 437 29 487 16 78 81 135 212 182 108 40 228
59 477 77 28 2 365 2 750 1 526 -2 750 -7 900 -19z m-410 -361 c315 -20 393
-29 414 -49 14 -15 16 -50 13 -314 -2 -163 -6 -351 -10 -417 l-7 -120 -64 -3
-64 -3 6 68 c13 131 29 613 23 648 -4 20 -15 39 -27 46 -29 15 -409 15 -437 0
-12 -6 -25 -24 -29 -39 -4 -15 -7 -182 -7 -371 l0 -344 -395 6 c-218 4 -499 7
-624 7 l-228 0 6 187 c8 254 23 479 36 550 20 109 50 139 158 160 88 17 907 9
1236 -12z m235 -214 c5 -11 10 -41 10 -67 l0 -47 -37 7 c-21 3 -102 6 -179 6
l-142 0 -3 43 c-7 82 -18 77 171 77 157 0 170 -1 180 -19z m-142 -158 l142 -6
0 -76 0 -76 -92 7 c-86 7 -192 4 -245 -8 -23 -4 -23 -2 -23 87 l0 92 38 -7
c20 -3 101 -9 180 -13z m15 -219 c105 -6 127 -10 122 -21 -3 -8 -5 -41 -5 -74
l0 -59 -175 0 -175 0 0 86 0 87 53 -6 c28 -4 110 -10 180 -13z m7 -213 l95 -6
0 -40 0 -40 -172 -3 -173 -2 0 56 0 56 78 -7 c42 -5 120 -11 172 -14z"/>
<path d="M2640 2987 c-54 -17 -124 -94 -145 -156 -37 -113 -3 -218 93 -286 37
-25 55 -30 115 -33 61 -3 79 0 117 21 94 49 145 163 120 265 -27 114 -108 190
-212 197 -29 2 -69 -1 -88 -8z m157 -96 c131 -95 74 -311 -83 -311 -92 0 -174
80 -174 170 1 137 149 219 257 141z"/>
<path d="M3776 2990 c-79 -24 -148 -107 -168 -201 -9 -45 -8 -64 5 -110 59
-201 339 -230 434 -45 25 48 29 148 8 202 -45 118 -169 187 -279 154z m123
-85 c119 -61 129 -238 19 -305 -90 -55 -226 11 -253 121 -8 34 9 99 37 134 48
61 134 83 197 50z"/>
<path d="M3255 2890 c-30 -12 -58 -47 -108 -135 -97 -170 -74 -214 118 -223
155 -7 206 25 191 121 -8 46 -55 142 -92 186 -22 26 -74 63 -86 60 -2 0 -12
-4 -23 -9z m79 -148 c30 -46 49 -84 50 -104 l1 -33 -70 -3 c-97 -4 -149 8
-153 35 -6 39 88 188 112 180 6 -2 33 -36 60 -75z"/>
<path d="M2775 2450 c-177 -28 -265 -99 -265 -212 0 -31 8 -57 29 -90 73 -116
300 -161 801 -162 253 0 342 9 474 51 137 43 216 148 186 248 -26 87 -106 133
-270 155 -101 14 -879 22 -955 10z m416 -70 l49 0 0 -160 0 -160 -85 0 c-60 0
-87 4 -90 13 -2 6 -6 81 -8 166 l-6 154 46 -7 c25 -3 68 -6 94 -6z m-185 -31
c-3 -17 -6 -88 -6 -157 l0 -125 -86 7 c-48 3 -90 9 -95 12 -5 3 -9 70 -9 150
l0 144 101 0 102 0 -7 -31z m500 17 c4 -4 -12 -295 -16 -299 -3 -3 -45 -6 -95
-8 l-90 -4 -3 163 -3 164 103 -7 c57 -4 104 -8 104 -9z m151 -6 l76 0 -7 -102
c-4 -57 -9 -119 -13 -139 l-5 -36 -72 -10 c-39 -6 -72 -10 -73 -9 -1 1 -5 71
-9 155 -7 144 -6 154 10 148 10 -4 52 -7 93 -7z m-907 -131 l0 -131 -27 7
c-52 12 -111 46 -129 73 -30 46 -24 90 19 127 35 31 82 52 120 54 15 1 17 -12
17 -130z m1100 105 c45 -18 80 -60 80 -96 0 -37 -36 -85 -79 -108 -71 -36 -71
-35 -71 100 0 134 -1 132 70 104z"/>
<path d="M2686 895 c-141 -50 -215 -235 -143 -358 32 -54 71 -84 135 -103 175
-53 321 135 261 334 -34 114 -140 167 -253 127z m120 -84 c45 -28 67 -81 62
-152 -7 -93 -59 -149 -140 -151 -85 -1 -142 63 -141 159 0 68 26 112 83 141
54 27 95 28 136 3z"/>
<path d="M3170 899 c-36 -15 -79 -58 -103 -104 -16 -31 -21 -58 -21 -120 -1
-70 3 -87 29 -133 33 -61 67 -88 133 -108 97 -30 200 17 248 113 58 117 3 276
-118 339 -39 20 -134 28 -168 13z m179 -98 c43 -31 64 -76 64 -137 0 -95 -58
-159 -143 -159 -88 0 -145 66 -145 170 0 66 26 123 67 143 36 18 120 9 157
-17z"/>
<path d="M2508 342 c-23 -22 -31 -37 -31 -62 0 -61 18 -67 240 -75 109 -5 307
-9 441 -9 l243 -1 30 33 c35 39 36 62 6 98 -23 26 -28 27 -163 35 -76 4 -273
8 -436 8 l-298 1 -32 -28z"/>
</g>
</svg>
